<?xml version="1.0" encoding="UTF-8"?>
<svg xmlns="http://www.w3.org/2000/svg" xmlns:xlink="http://www.w3.org/1999/xlink" width="960" height="960" viewBox="500 500 3000 3000">
    <title>Green Abstract Shape</title>
    <desc>This is an abstract green shape consisting of multiple curved paths. It is designed with geometric precision and can be used in various graphic designs.</desc>
    <path fill-rule="nonzero" fill="green" fill-opacity="1" d="M 1989.46875 2060.460938 L 1987.871094 2078.851562 C 1987.101562 2087.601562 1984.460938 2096.078125 1980.140625 2103.730469 C 1853.21875 2327.789062 1709.78125 2588.640625 1469.078125 2658.269531 C 1233.230469 2726.480469 918.523438 2604.640625 635.859375 2498.011719 C 604.179688 2486.058594 588.1875 2450.691406 600.136719 2419.011719 C 612.085938 2387.328125 647.453125 2371.339844 679.132812 2383.289062 C 979.464844 2496.578125 1247.75 2594.640625 1435.011719 2540.480469 C 1617.398438 2487.71875 1737.160156 2283.898438 1873.449219 2043.289062 L 1865.71875 2068.171875 L 1867.328125 2049.78125 C 1870.28125 2016.050781 1900.011719 1991.101562 1933.738281 1994.050781 C 1967.480469 1997 1992.429688 2026.730469 1989.46875 2060.460938 "/>
    <path fill-rule="nonzero" fill="green" fill-opacity="1" d="M 1956.570312 2042.300781 L 1944.460938 2056.230469 C 1938.699219 2062.859375 1931.578125 2068.171875 1923.578125 2071.808594 C 1689.199219 2178.480469 1419.828125 2305.199219 1184.179688 2220.050781 C 953.28125 2136.609375 770.296875 1853.058594 604.289062 1600.648438 C 585.679688 1572.359375 593.53125 1534.351562 621.820312 1515.738281 C 650.109375 1497.128906 688.125 1504.980469 706.726562 1533.269531 C 883.109375 1801.449219 1042.519531 2038.488281 1225.851562 2104.730469 C 1404.421875 2169.261719 1621.109375 2074.761719 1872.789062 1960.210938 L 1851.921875 1975.789062 L 1864.03125 1961.859375 C 1886.238281 1936.308594 1924.96875 1933.601562 1950.519531 1955.808594 C 1976.070312 1978.019531 1978.78125 2016.75 1956.570312 2042.300781 "/>
    <path fill-rule="nonzero" fill="green" fill-opacity="1" d="M 1940.621094 2008.261719 L 1922.628906 2012.421875 C 1914.078125 2014.390625 1905.199219 2014.511719 1896.589844 2012.75 C 1644.28125 1961.289062 1351.871094 1905.46875 1211.269531 1698.058594 C 1073.511719 1494.851562 1092.140625 1157.890625 1106.199219 856.109375 C 1107.78125 822.289062 1136.46875 796.148438 1170.300781 797.71875 C 1204.121094 799.300781 1230.261719 827.988281 1228.679688 861.808594 C 1213.738281 1182.449219 1203.378906 1467.910156 1312.761719 1629.269531 C 1419.300781 1786.429688 1650.148438 1837.351562 1921.101562 1892.609375 L 1895.050781 1892.949219 L 1913.039062 1888.789062 C 1946.03125 1881.179688 1978.949219 1901.75 1986.570312 1934.738281 C 1994.179688 1967.730469 1973.609375 2000.648438 1940.621094 2008.261719 "/>
    <path fill-rule="nonzero" fill="green" fill-opacity="1" d="M 1947.730469 1971.351562 L 1930.738281 1964.140625 C 1922.648438 1960.710938 1915.398438 1955.578125 1909.46875 1949.101562 C 1735.589844 1759.160156 1531.828125 1542.128906 1540 1291.691406 C 1548 1046.320312 1761.128906 784.660156 1949.890625 548.78125 C 1971.039062 522.351562 2009.621094 518.058594 2036.058594 539.21875 C 2062.488281 560.371094 2066.78125 598.949219 2045.621094 625.390625 C 1845.070312 876.011719 1668.898438 1100.859375 1662.550781 1295.691406 C 1656.359375 1485.460938 1813.199219 1662.351562 1999.910156 1866.308594 L 1978.640625 1851.28125 L 1995.640625 1858.488281 C 2026.800781 1871.71875 2041.351562 1907.710938 2028.121094 1938.871094 C 2014.890625 1970.039062 1978.890625 1984.578125 1947.730469 1971.351562 "/>
    <path fill-rule="nonzero" fill="green" fill-opacity="1" d="M 1975.171875 1945.671875 L 1965.660156 1929.851562 C 1961.140625 1922.320312 1958.289062 1913.910156 1957.300781 1905.179688 C 1928.28125 1649.308594 1891 1353.960938 2044.800781 1156.160156 C 2195.511719 962.351562 2521.730469 875.941406 2813.089844 796.050781 C 2845.738281 787.101562 2879.46875 806.308594 2888.421875 838.96875 C 2897.378906 871.621094 2878.160156 905.351562 2845.511719 914.300781 C 2535.949219 999.179688 2261.261719 1077.539062 2141.601562 1231.421875 C 2025.050781 1381.308594 2047.960938 1616.601562 2079.128906 1891.359375 L 2070.769531 1866.699219 L 2080.269531 1882.519531 C 2097.710938 1911.539062 2088.320312 1949.210938 2059.300781 1966.640625 C 2030.28125 1984.078125 1992.609375 1974.691406 1975.171875 1945.671875 "/>
    <path fill-rule="nonzero" fill="green" fill-opacity="1" d="M 2012.46875 1941.019531 L 2014.078125 1922.628906 C 2014.851562 1913.878906 2017.480469 1905.398438 2021.808594 1897.761719 C 2148.730469 1673.699219 2292.171875 1412.851562 2532.871094 1343.21875 C 2768.710938 1275.011719 3083.421875 1396.851562 3366.078125 1503.480469 C 3397.769531 1515.429688 3413.761719 1550.800781 3401.808594 1582.480469 C 3389.859375 1614.160156 3354.488281 1630.148438 3322.808594 1618.199219 C 3022.480469 1504.910156 2754.199219 1406.839844 2566.941406 1461.011719 C 2384.539062 1513.761719 2264.78125 1717.589844 2128.5 1958.191406 L 2136.230469 1933.320312 L 2134.621094 1951.710938 C 2131.671875 1985.441406 2101.929688 2010.390625 2068.199219 2007.441406 C 2034.46875 2004.488281 2009.519531 1974.75 2012.46875 1941.019531 "/>
    <path fill-rule="nonzero" fill="green" fill-opacity="1" d="M 2045.378906 1959.191406 L 2057.488281 1945.25 C 2063.25 1938.628906 2070.371094 1933.308594 2078.359375 1929.679688 C 2312.738281 1823 2582.109375 1696.28125 2817.769531 1781.441406 C 3048.660156 1864.871094 3231.648438 2148.429688 3397.660156 2400.839844 C 3416.261719 2429.128906 3408.410156 2467.140625 3380.128906 2485.75 C 3351.839844 2504.351562 3313.820312 2496.5 3295.21875 2468.21875 C 3118.828125 2200.03125 2959.429688 1963 2776.101562 1896.75 C 2597.53125 1832.230469 2380.839844 1926.730469 2129.148438 2041.28125 L 2150.03125 2025.699219 L 2137.910156 2039.628906 C 2115.699219 2065.179688 2076.980469 2067.890625 2051.421875 2045.679688 C 2025.871094 2023.460938 2023.160156 1984.738281 2045.378906 1959.191406 "/>
    <path fill-rule="nonzero" fill="green" fill-opacity="1" d="M 2061.320312 1993.230469 L 2079.308594 1989.070312 C 2087.871094 1987.101562 2096.75 1986.980469 2105.351562 1988.738281 C 2357.671875 2040.199219 2650.078125 2096.011719 2790.679688 2303.421875 C 2928.429688 2506.640625 2909.800781 2843.601562 2895.738281 3145.378906 C 2894.171875 3179.203125 2865.480469 3205.34375 2831.648438 3203.765625 C 2797.828125 3202.191406 2771.691406 3173.496094 2773.261719 3139.671875 C 2788.199219 2819.039062 2798.558594 2533.578125 2689.191406 2372.21875 C 2582.648438 2215.058594 2351.800781 2164.140625 2080.851562 2108.878906 L 2106.890625 2108.539062 L 2088.910156 2112.699219 C 2055.910156 2120.308594 2023 2099.738281 2015.378906 2066.75 C 2007.761719 2033.761719 2028.328125 2000.839844 2061.320312 1993.230469 "/>
    <path fill-rule="nonzero" fill="green" fill-opacity="1" d="M 2054.21875 2030.128906 L 2071.210938 2037.351562 C 2079.300781 2040.78125 2086.550781 2045.910156 2092.480469 2052.378906 C 2266.359375 2242.328125 2470.109375 2459.359375 2461.949219 2709.789062 C 2453.949219 2955.171875 2240.808594 3216.824219 2052.058594 3452.710938 C 2030.898438 3479.140625 1992.320312 3483.425781 1965.890625 3462.273438 C 1939.449219 3441.117188 1935.171875 3402.535156 1956.320312 3376.097656 C 2156.878906 3125.476562 2333.050781 2900.628906 2339.398438 2705.800781 C 2345.589844 2516.03125 2188.75 2339.140625 2002.03125 2135.179688 L 2023.300781 2150.210938 L 2006.308594 2143 C 1975.140625 2129.769531 1960.601562 2093.78125 1973.828125 2062.609375 C 1987.058594 2031.449219 2023.050781 2016.898438 2054.21875 2030.128906 "/>
    <path fill-rule="nonzero" fill="green" fill-opacity="1" d="M 2026.769531 2055.820312 L 2036.28125 2071.640625 C 2040.800781 2079.171875 2043.660156 2087.578125 2044.640625 2096.300781 C 2073.671875 2352.179688 2110.949219 2647.519531 1957.140625 2845.328125 C 1806.441406 3039.140625 1480.210938 3125.546875 1188.859375 3205.433594 C 1156.210938 3214.386719 1122.480469 3195.171875 1113.519531 3162.519531 C 1104.570312 3129.867188 1123.78125 3096.140625 1156.441406 3087.183594 C 1466 3002.308594 1740.691406 2923.949219 1860.351562 2770.070312 C 1976.890625 2620.179688 1953.980469 2384.890625 1922.808594 2110.121094 L 1931.179688 2134.789062 L 1921.671875 2118.96875 C 1904.230469 2089.941406 1913.621094 2052.28125 1942.648438 2034.839844 C 1971.671875 2017.398438 2009.328125 2026.789062 2026.769531 2055.820312 "/>
    <path fill-rule="nonzero" fill="green" fill-opacity="1" d="M 1947.730469 2030.128906 L 1930.738281 2037.351562 C 1922.648438 2040.78125 1915.398438 2045.910156 1909.46875 2052.378906 C 1735.589844 2242.328125 1531.828125 2459.359375 1540 2709.789062 C 1548 2955.171875 1761.128906 3216.824219 1949.890625 3452.707031 C 1971.039062 3479.140625 2009.621094 3483.425781 2036.058594 3462.273438 C 2062.488281 3441.117188 2066.78125 3402.535156 2045.621094 3376.097656 C 1845.070312 3125.476562 1668.898438 2900.628906 1662.550781 2705.800781 C 1656.359375 2516.03125 1813.199219 2339.140625 1999.910156 2135.179688 L 1978.640625 2150.210938 L 1995.640625 2143 C 2026.800781 2129.769531 2041.351562 2093.78125 2028.121094 2062.609375 C 2014.890625 2031.441406 1978.890625 2016.898438 1947.730469 2030.128906 "/>
    <path fill-rule="nonzero" fill="green" fill-opacity="1" d="M 1940.621094 1993.21875 L 1922.628906 1989.070312 C 1914.078125 1987.101562 1905.199219 1986.980469 1896.589844 1988.738281 C 1644.28125 2040.199219 1351.871094 2096.011719 1211.269531 2303.421875 C 1073.511719 2506.640625 1092.140625 2843.601562 1106.199219 3145.378906 C 1107.78125 3179.203125 1136.46875 3205.34375 1170.300781 3203.765625 C 1204.121094 3202.191406 1230.261719 3173.496094 1228.679688 3139.671875 C 1213.738281 2819.03125 1203.378906 2533.578125 1312.761719 2372.21875 C 1419.300781 2215.058594 1650.148438 2164.140625 1921.101562 2108.878906 L 1895.050781 2108.539062 L 1913.039062 2112.691406 C 1946.03125 2120.308594 1978.949219 2099.738281 1986.570312 2066.75 C 1994.179688 2033.761719 1973.609375 2000.839844 1940.621094 1993.21875 "/>
    <path fill-rule="nonzero" fill="green" fill-opacity="1" d="M 1956.570312 1959.191406 L 1944.460938 1945.25 C 1938.699219 1938.628906 1931.578125 1933.308594 1923.578125 1929.679688 C 1689.199219 1823 1419.828125 1696.28125 1184.179688 1781.441406 C 953.28125 1864.871094 770.296875 2148.429688 604.289062 2400.839844 C 585.679688 2429.128906 593.53125 2467.140625 621.820312 2485.75 C 650.109375 2504.351562 688.125 2496.5 706.726562 2468.21875 C 883.109375 2200.03125 1042.519531 1963 1225.851562 1896.75 C 1404.421875 1832.21875 1621.109375 1926.730469 1872.789062 2041.28125 L 1851.921875 2025.699219 L 1864.03125 2039.628906 C 1886.238281 2065.179688 1924.96875 2067.890625 1950.519531 2045.679688 C 1976.070312 2023.460938 1978.78125 1984.738281 1956.570312 1959.191406 "/>
    <path fill-rule="nonzero" fill="green" fill-opacity="1" d="M 1989.46875 1941.019531 L 1987.871094 1922.628906 C 1987.101562 1913.878906 1984.460938 1905.398438 1980.140625 1897.761719 C 1853.21875 1673.699219 1709.78125 1412.851562 1469.078125 1343.21875 C 1233.230469 1275.011719 918.523438 1396.851562 635.859375 1503.480469 C 604.179688 1515.429688 588.1875 1550.800781 600.136719 1582.480469 C 612.085938 1614.160156 647.453125 1630.148438 679.132812 1618.199219 C 979.464844 1504.910156 1247.75 1406.839844 1435.011719 1461.011719 C 1617.398438 1513.761719 1737.160156 1717.589844 1873.449219 1958.191406 L 1865.71875 1933.320312 L 1867.328125 1951.710938 C 1870.28125 1985.441406 1900.011719 2010.390625 1933.738281 2007.441406 C 1967.480469 2004.488281 1992.429688 1974.75 1989.46875 1941.019531 "/>
    <path fill-rule="nonzero" fill="green" fill-opacity="1" d="M 2026.769531 1945.671875 L 2036.28125 1929.851562 C 2040.800781 1922.320312 2043.660156 1913.910156 2044.648438 1905.179688 C 2073.671875 1649.308594 2110.949219 1353.960938 1957.140625 1156.160156 C 1806.441406 962.351562 1480.210938 875.941406 1188.859375 796.050781 C 1156.210938 787.101562 1122.480469 806.308594 1113.53125 838.96875 C 1104.570312 871.621094 1123.78125 905.351562 1156.441406 914.300781 C 1466 999.179688 1740.691406 1077.539062 1860.351562 1231.421875 C 1976.890625 1381.308594 1953.980469 1616.601562 1922.808594 1891.359375 L 1931.179688 1866.699219 L 1921.671875 1882.519531 C 1904.230469 1911.539062 1913.621094 1949.210938 1942.648438 1966.640625 C 1971.671875 1984.078125 2009.328125 1974.699219 2026.769531 1945.671875 "/>
    <path fill-rule="nonzero" fill="green" fill-opacity="1" d="M 2054.21875 1971.351562 L 2071.210938 1964.140625 C 2079.289062 1960.710938 2086.550781 1955.578125 2092.480469 1949.101562 C 2266.359375 1759.160156 2470.109375 1542.128906 2461.949219 1291.691406 C 2453.949219 1046.320312 2240.808594 784.660156 2052.058594 548.78125 C 2030.898438 522.339844 1992.328125 518.058594 1965.890625 539.21875 C 1939.449219 560.371094 1935.171875 598.949219 1956.320312 625.390625 C 2156.878906 876.011719 2333.050781 1100.859375 2339.398438 1295.691406 C 2345.589844 1485.460938 2188.75 1662.339844 2002.03125 1866.308594 L 2023.300781 1851.28125 L 2006.308594 1858.488281 C 1975.140625 1871.710938 1960.601562 1907.710938 1973.828125 1938.871094 C 1987.058594 1970.039062 2023.050781 1984.578125 2054.21875 1971.351562 "/>
    <path fill-rule="nonzero" fill="green" fill-opacity="1" d="M 2061.320312 2008.261719 L 2079.308594 2012.421875 C 2087.871094 2014.390625 2096.75 2014.511719 2105.351562 2012.75 C 2357.671875 1961.289062 2650.078125 1905.46875 2790.679688 1698.058594 C 2928.429688 1494.851562 2909.800781 1157.890625 2895.738281 856.109375 C 2894.171875 822.289062 2865.480469 796.148438 2831.648438 797.71875 C 2797.828125 799.300781 2771.691406 827.988281 2773.261719 861.808594 C 2788.199219 1182.449219 2798.558594 1467.910156 2689.191406 1629.269531 C 2582.648438 1786.429688 2351.800781 1837.351562 2080.851562 1892.609375 L 2106.890625 1892.949219 L 2088.910156 1888.789062 C 2055.910156 1881.179688 2023 1901.75 2015.378906 1934.738281 C 2007.761719 1967.730469 2028.328125 2000.648438 2061.320312 2008.261719 "/>
    <path fill-rule="nonzero" fill="green" fill-opacity="1" d="M 2045.378906 2042.300781 L 2057.488281 2056.230469 C 2063.25 2062.859375 2070.371094 2068.171875 2078.359375 2071.808594 C 2312.738281 2178.480469 2582.109375 2305.199219 2817.769531 2220.050781 C 3048.660156 2136.609375 3231.648438 1853.058594 3397.660156 1600.648438 C 3416.261719 1572.359375 3408.410156 1534.351562 3380.128906 1515.738281 C 3351.839844 1497.128906 3313.820312 1504.980469 3295.21875 1533.269531 C 3118.828125 1801.449219 2959.429688 2038.488281 2776.101562 2104.730469 C 2597.53125 2169.261719 2380.839844 2074.761719 2129.148438 1960.210938 L 2150.03125 1975.789062 L 2137.921875 1961.859375 C 2115.699219 1936.308594 2076.980469 1933.601562 2051.429688 1955.808594 C 2025.871094 1978.019531 2023.160156 2016.75 2045.378906 2042.300781 "/>
    <path fill-rule="nonzero" fill="green" fill-opacity="1" d="M 2012.46875 2060.460938 L 2014.078125 2078.851562 C 2014.851562 2087.601562 2017.480469 2096.078125 2021.808594 2103.730469 C 2148.730469 2327.789062 2292.171875 2588.640625 2532.871094 2658.269531 C 2768.710938 2726.480469 3083.421875 2604.640625 3366.078125 2498.011719 C 3397.769531 2486.058594 3413.761719 2450.691406 3401.808594 2419.011719 C 3389.859375 2387.328125 3354.488281 2371.339844 3322.808594 2383.289062 C 3022.480469 2496.578125 2754.199219 2594.640625 2566.941406 2540.480469 C 2384.539062 2487.71875 2264.78125 2283.898438 2128.5 2043.289062 L 2136.230469 2068.171875 L 2134.621094 2049.78125 C 2131.671875 2016.050781 2101.929688 1991.101562 2068.199219 1994.050781 C 2034.46875 1997 2009.519531 2026.730469 2012.46875 2060.460938 "/>
    <path fill-rule="nonzero" fill="green" fill-opacity="1" d="M 1975.171875 2055.820312 L 1965.660156 2071.640625 C 1961.140625 2079.171875 1958.289062 2087.578125 1957.300781 2096.300781 C 1928.269531 2352.179688 1890.988281 2647.519531 2044.800781 2845.328125 C 2195.511719 3039.140625 2521.730469 3125.546875 2813.089844 3205.433594 C 2845.738281 3214.390625 2879.46875 3195.175781 2888.421875 3162.519531 C 2897.371094 3129.867188 2878.160156 3096.140625 2845.511719 3087.183594 C 2535.949219 3002.308594 2261.261719 2923.949219 2141.601562 2770.070312 C 2025.050781 2620.179688 2047.960938 2384.890625 2079.128906 2110.121094 L 2070.761719 2134.789062 L 2080.269531 2118.96875 C 2097.710938 2089.941406 2088.320312 2052.28125 2059.300781 2034.839844 C 2030.28125 2017.398438 1992.609375 2026.789062 1975.171875 2055.820312 "/>
</svg>
